<svg width="30" height="30" viewBox="0 0 30 30" fill="none" xmlns="http://www.w3.org/2000/svg">
<g id="Icon/Fill/bulb">
<path id="Mask" fill-rule="evenodd" clip-rule="evenodd" d="M16.25 6.25C16.25 6.94125 15.69 7.5 15 7.5C14.31 7.5 13.75 6.94125 13.75 6.25V3.75C13.75 3.05875 14.31 2.5 15 2.5C15.69 2.5 16.25 3.05875 16.25 3.75V6.25ZM8.75 15C8.75 11.5538 11.5538 8.75 15 8.75C18.4462 8.75 21.25 11.5538 21.25 15C21.25 16.9738 20.3075 18.8275 18.75 19.995V25C18.75 26.3787 17.6287 27.5 16.25 27.5H13.75C12.3713 27.5 11.25 26.3787 11.25 25V19.995C9.69125 18.8275 8.75 16.9738 8.75 15ZM26.25 13.75H23.75C23.0588 13.75 22.5 14.3088 22.5 15C22.5 15.6912 23.0588 16.25 23.75 16.25H26.25C26.9412 16.25 27.5 15.6912 27.5 15C27.5 14.3088 26.9412 13.75 26.25 13.75ZM3.75 13.75H6.25C6.94 13.75 7.5 14.3088 7.5 15C7.5 15.6912 6.94 16.25 6.25 16.25H3.75C3.06 16.25 2.5 15.6912 2.5 15C2.5 14.3088 3.06 13.75 3.75 13.75ZM9.57463 8.02255L7.77588 6.28505C7.27963 5.8063 6.48963 5.8213 6.00838 6.31755C5.52838 6.81255 5.54213 7.60505 6.03838 8.08505L7.83713 9.8213C8.08088 10.0563 8.39338 10.1726 8.70588 10.1726C9.03338 10.1726 9.35963 10.0438 9.60463 9.79005C10.0846 9.29505 10.0709 8.50255 9.57463 8.02255ZM22.2243 6.28715C22.7193 5.8084 23.5143 5.82215 23.9905 6.31715C24.4705 6.81215 24.4568 7.60465 23.9605 8.0834L22.1618 9.8209C21.9205 10.0546 21.6068 10.1721 21.2943 10.1721C20.9668 10.1721 20.6393 10.0434 20.3955 9.78965C19.9155 9.29465 19.9293 8.50215 20.4255 8.0234L22.2243 6.28715Z" fill="#231F20"/>
<mask id="mask0" mask-type="alpha" maskUnits="userSpaceOnUse" x="2" y="2" width="26" height="26">
<path id="Mask_2" fill-rule="evenodd" clip-rule="evenodd" d="M16.25 6.25C16.25 6.94125 15.69 7.5 15 7.5C14.31 7.5 13.75 6.94125 13.75 6.25V3.75C13.75 3.05875 14.31 2.5 15 2.5C15.69 2.5 16.25 3.05875 16.25 3.75V6.25ZM8.75 15C8.75 11.5538 11.5538 8.75 15 8.75C18.4462 8.75 21.25 11.5538 21.25 15C21.25 16.9738 20.3075 18.8275 18.75 19.995V25C18.75 26.3787 17.6287 27.5 16.25 27.5H13.75C12.3713 27.5 11.25 26.3787 11.25 25V19.995C9.69125 18.8275 8.75 16.9738 8.75 15ZM26.25 13.75H23.75C23.0588 13.75 22.5 14.3088 22.5 15C22.5 15.6912 23.0588 16.25 23.75 16.25H26.25C26.9412 16.25 27.5 15.6912 27.5 15C27.5 14.3088 26.9412 13.75 26.25 13.75ZM3.75 13.75H6.25C6.94 13.75 7.5 14.3088 7.5 15C7.5 15.6912 6.94 16.25 6.25 16.25H3.75C3.06 16.25 2.5 15.6912 2.5 15C2.5 14.3088 3.06 13.75 3.75 13.75ZM9.57463 8.02255L7.77588 6.28505C7.27963 5.8063 6.48963 5.8213 6.00838 6.31755C5.52838 6.81255 5.54213 7.60505 6.03838 8.08505L7.83713 9.8213C8.08088 10.0563 8.39338 10.1726 8.70588 10.1726C9.03338 10.1726 9.35963 10.0438 9.60463 9.79005C10.0846 9.29505 10.0709 8.50255 9.57463 8.02255ZM22.2243 6.28715C22.7193 5.8084 23.5143 5.82215 23.9905 6.31715C24.4705 6.81215 24.4568 7.60465 23.9605 8.0834L22.1618 9.8209C21.9205 10.0546 21.6068 10.1721 21.2943 10.1721C20.9668 10.1721 20.6393 10.0434 20.3955 9.78965C19.9155 9.29465 19.9293 8.50215 20.4255 8.0234L22.2243 6.28715Z" fill="white"/>
</mask>
<g mask="url(#mask0)">
<g id="&#240;&#159;&#142;&#168; Color">
<rect id="Base" width="30" height="30" fill="#ECC700"/>
</g>
</g>
</g>
</svg>
