<svg width="30" height="30" viewBox="0 0 30 30" fill="none" xmlns="http://www.w3.org/2000/svg">
<g id="Icon/Fill/close">
<path id="Mask" fill-rule="evenodd" clip-rule="evenodd" d="M16.7678 15.0003L22.1341 9.63406C22.6228 9.14531 22.6228 8.35531 22.1341 7.86656C21.6453 7.37781 20.8553 7.37781 20.3666 7.86656L15.0003 13.2328L9.63406 7.86656C9.14531 7.37781 8.35531 7.37781 7.86656 7.86656C7.37781 8.35531 7.37781 9.14531 7.86656 9.63406L13.2328 15.0003L7.86656 20.3666C7.37781 20.8553 7.37781 21.6453 7.86656 22.1341C8.11031 22.3778 8.43031 22.5003 8.75031 22.5003C9.07031 22.5003 9.39031 22.3778 9.63406 22.1341L15.0003 16.7678L20.3666 22.1341C20.6103 22.3778 20.9303 22.5003 21.2503 22.5003C21.5703 22.5003 21.8903 22.3778 22.1341 22.1341C22.6228 21.6453 22.6228 20.8553 22.1341 20.3666L16.7678 15.0003Z" fill="#231F20"/>
<mask id="mask0" mask-type="alpha" maskUnits="userSpaceOnUse" x="7" y="7" width="16" height="16">
<path id="Mask_2" fill-rule="evenodd" clip-rule="evenodd" d="M16.7678 15.0003L22.1341 9.63406C22.6228 9.14531 22.6228 8.35531 22.1341 7.86656C21.6453 7.37781 20.8553 7.37781 20.3666 7.86656L15.0003 13.2328L9.63406 7.86656C9.14531 7.37781 8.35531 7.37781 7.86656 7.86656C7.37781 8.35531 7.37781 9.14531 7.86656 9.63406L13.2328 15.0003L7.86656 20.3666C7.37781 20.8553 7.37781 21.6453 7.86656 22.1341C8.11031 22.3778 8.43031 22.5003 8.75031 22.5003C9.07031 22.5003 9.39031 22.3778 9.63406 22.1341L15.0003 16.7678L20.3666 22.1341C20.6103 22.3778 20.9303 22.5003 21.2503 22.5003C21.5703 22.5003 21.8903 22.3778 22.1341 22.1341C22.6228 21.6453 22.6228 20.8553 22.1341 20.3666L16.7678 15.0003Z" fill="white"/>
</mask>
<g mask="url(#mask0)">
<g id="&#240;&#159;&#142;&#168; Color">
<rect id="Base" width="30" height="30" fill="#333333"/>
</g>
</g>
</g>
</svg>
