<svg width="30" height="30" viewBox="0 0 30 30" fill="none" xmlns="http://www.w3.org/2000/svg">
<g id="Icon/Fill/globe-2">
<path id="Mask" fill-rule="evenodd" clip-rule="evenodd" d="M6.2025 19.7497C6.9975 19.951 7.85875 20.091 8.735 20.091C10.085 20.091 11.4638 19.7622 12.6563 18.8285C14.8013 17.151 14.8013 15.0047 14.8013 13.2797C14.8013 12.166 14.8013 11.2035 15.2663 10.3497C15.5163 9.89225 16.0488 9.57475 16.665 9.206C17.0425 8.981 17.4325 8.74725 17.8088 8.4535C18.6125 7.82475 19.21 7.01475 19.58 6.121C21.33 7.026 22.78 8.42975 23.7363 10.1485C21.9525 10.3972 19.4175 10.981 18.9075 13.316C18.7725 13.9335 18.7513 14.5147 18.7338 15.0285C18.7088 15.7572 18.6875 16.3335 18.375 16.8597L18.2513 17.0697C17.4425 18.4235 16.5275 19.9597 17.7613 22.106C17.91 22.366 18.0763 22.616 18.24 22.8635C18.67 23.5097 18.8813 23.866 18.8825 24.2147C17.6875 24.721 16.3763 24.9997 15 24.9997C11.2038 24.9997 7.895 22.8735 6.2025 19.7497ZM15 2.49976C8.1075 2.49976 2.5 8.10851 2.5 14.9998C2.5 21.8923 8.1075 27.4998 15 27.4998C21.8925 27.4998 27.5 21.8923 27.5 14.9998C27.5 8.10851 21.8925 2.49976 15 2.49976Z" fill="#231F20"/>
<mask id="mask0" mask-type="alpha" maskUnits="userSpaceOnUse" x="2" y="2" width="26" height="26">
<path id="Mask_2" fill-rule="evenodd" clip-rule="evenodd" d="M6.2025 19.7497C6.9975 19.951 7.85875 20.091 8.735 20.091C10.085 20.091 11.4638 19.7622 12.6563 18.8285C14.8013 17.151 14.8013 15.0047 14.8013 13.2797C14.8013 12.166 14.8013 11.2035 15.2663 10.3497C15.5163 9.89225 16.0488 9.57475 16.665 9.206C17.0425 8.981 17.4325 8.74725 17.8088 8.4535C18.6125 7.82475 19.21 7.01475 19.58 6.121C21.33 7.026 22.78 8.42975 23.7363 10.1485C21.9525 10.3972 19.4175 10.981 18.9075 13.316C18.7725 13.9335 18.7513 14.5147 18.7338 15.0285C18.7088 15.7572 18.6875 16.3335 18.375 16.8597L18.2513 17.0697C17.4425 18.4235 16.5275 19.9597 17.7613 22.106C17.91 22.366 18.0763 22.616 18.24 22.8635C18.67 23.5097 18.8813 23.866 18.8825 24.2147C17.6875 24.721 16.3763 24.9997 15 24.9997C11.2038 24.9997 7.895 22.8735 6.2025 19.7497ZM15 2.49976C8.1075 2.49976 2.5 8.10851 2.5 14.9998C2.5 21.8923 8.1075 27.4998 15 27.4998C21.8925 27.4998 27.5 21.8923 27.5 14.9998C27.5 8.10851 21.8925 2.49976 15 2.49976Z" fill="white"/>
</mask>
<g mask="url(#mask0)">
<g id="&#240;&#159;&#142;&#168; Color">
<rect id="Base" width="30" height="30" fill="#333333"/>
</g>
</g>
</g>
</svg>
