<svg width="30" height="30" viewBox="0 0 30 30" fill="none" xmlns="http://www.w3.org/2000/svg">
<g id="Icon/Fill/image">
<path id="Mask" fill-rule="evenodd" clip-rule="evenodd" d="M10 12.5C11.035 12.5 11.875 11.66 11.875 10.625C11.875 9.59 11.035 8.75 10 8.75C8.965 8.75 8.125 9.59 8.125 10.625C8.125 11.66 8.965 12.5 10 12.5ZM7.5 6.25H22.5C23.19 6.25 23.75 6.81 23.75 7.5V17.955L19.7463 14.54C18.5087 13.4875 16.5725 13.4875 15.3462 14.5325L6.25 22.1225V7.5C6.25 6.81 6.81 6.25 7.5 6.25ZM22.5 3.75H7.5C5.4325 3.75 3.75 5.4325 3.75 7.5V22.5C3.75 24.5675 5.4325 26.25 7.5 26.25H22.5C24.5675 26.25 26.25 24.5675 26.25 22.5V7.5C26.25 5.4325 24.5675 3.75 22.5 3.75Z" fill="#231F20"/>
<mask id="mask0" mask-type="alpha" maskUnits="userSpaceOnUse" x="3" y="3" width="24" height="24">
<path id="Mask_2" fill-rule="evenodd" clip-rule="evenodd" d="M10 12.5C11.035 12.5 11.875 11.66 11.875 10.625C11.875 9.59 11.035 8.75 10 8.75C8.965 8.75 8.125 9.59 8.125 10.625C8.125 11.66 8.965 12.5 10 12.5ZM7.5 6.25H22.5C23.19 6.25 23.75 6.81 23.75 7.5V17.955L19.7463 14.54C18.5087 13.4875 16.5725 13.4875 15.3462 14.5325L6.25 22.1225V7.5C6.25 6.81 6.81 6.25 7.5 6.25ZM22.5 3.75H7.5C5.4325 3.75 3.75 5.4325 3.75 7.5V22.5C3.75 24.5675 5.4325 26.25 7.5 26.25H22.5C24.5675 26.25 26.25 24.5675 26.25 22.5V7.5C26.25 5.4325 24.5675 3.75 22.5 3.75Z" fill="white"/>
</mask>
<g mask="url(#mask0)">
<g id="&#240;&#159;&#142;&#168; Color">
<rect id="Base" width="30" height="30" fill="#333333"/>
</g>
</g>
</g>
</svg>
