<svg width="30" height="30" viewBox="0 0 30 30" fill="none" xmlns="http://www.w3.org/2000/svg">
<g id="Icon/Fill/layout">
<path id="Mask" fill-rule="evenodd" clip-rule="evenodd" d="M26.25 10V7.5C26.25 5.4325 24.5675 3.75 22.5 3.75H7.5C5.4325 3.75 3.75 5.4325 3.75 7.5V10H26.25ZM3.75 12.5V22.5C3.75 24.5675 5.4325 26.25 7.5 26.25H13.75V12.5H3.75ZM16.25 26.25V12.5H26.25V22.5C26.25 24.5675 24.5675 26.25 22.5 26.25H16.25Z" fill="#231F20"/>
<mask id="mask0" mask-type="alpha" maskUnits="userSpaceOnUse" x="3" y="3" width="24" height="24">
<path id="Mask_2" fill-rule="evenodd" clip-rule="evenodd" d="M26.25 10V7.5C26.25 5.4325 24.5675 3.75 22.5 3.75H7.5C5.4325 3.75 3.75 5.4325 3.75 7.5V10H26.25ZM3.75 12.5V22.5C3.75 24.5675 5.4325 26.25 7.5 26.25H13.75V12.5H3.75ZM16.25 26.25V12.5H26.25V22.5C26.25 24.5675 24.5675 26.25 22.5 26.25H16.25Z" fill="white"/>
</mask>
<g mask="url(#mask0)">
<g id="&#240;&#159;&#142;&#168; Color">
<rect id="Base" width="30" height="30" fill="#333333"/>
</g>
</g>
</g>
</svg>
