<svg width="45" height="45" viewBox="0 0 45 45" fill="none" xmlns="http://www.w3.org/2000/svg">
<g id="Icon/Fill/menu">
<path id="Mask" fill-rule="evenodd" clip-rule="evenodd" d="M7.40299 11.25H37.5961C38.5749 11.25 39.3755 12.0506 39.3755 13.0294V13.2206C39.3755 14.1994 38.5749 15 37.5961 15H7.40299C6.42424 15 5.62549 14.1994 5.62549 13.2206V13.0294C5.62549 12.0506 6.42424 11.25 7.40299 11.25ZM37.5961 20.625H7.40299C6.42424 20.625 5.62549 21.4256 5.62549 22.4044V22.5956C5.62549 23.5744 6.42424 24.375 7.40299 24.375H37.5961C38.5749 24.375 39.3755 23.5744 39.3755 22.5956V22.4044C39.3755 21.4256 38.5749 20.625 37.5961 20.625ZM37.5961 30H7.40299C6.42424 30 5.62549 30.8006 5.62549 31.7794V31.9706C5.62549 32.9494 6.42424 33.75 7.40299 33.75H37.5961C38.5749 33.75 39.3755 32.9494 39.3755 31.9706V31.7794C39.3755 30.8006 38.5749 30 37.5961 30Z" fill="#231F20"/>
<mask id="mask0" mask-type="alpha" maskUnits="userSpaceOnUse" x="5" y="11" width="35" height="23">
<path id="Mask_2" fill-rule="evenodd" clip-rule="evenodd" d="M7.40299 11.25H37.5961C38.5749 11.25 39.3755 12.0506 39.3755 13.0294V13.2206C39.3755 14.1994 38.5749 15 37.5961 15H7.40299C6.42424 15 5.62549 14.1994 5.62549 13.2206V13.0294C5.62549 12.0506 6.42424 11.25 7.40299 11.25ZM37.5961 20.625H7.40299C6.42424 20.625 5.62549 21.4256 5.62549 22.4044V22.5956C5.62549 23.5744 6.42424 24.375 7.40299 24.375H37.5961C38.5749 24.375 39.3755 23.5744 39.3755 22.5956V22.4044C39.3755 21.4256 38.5749 20.625 37.5961 20.625ZM37.5961 30H7.40299C6.42424 30 5.62549 30.8006 5.62549 31.7794V31.9706C5.62549 32.9494 6.42424 33.75 7.40299 33.75H37.5961C38.5749 33.75 39.3755 32.9494 39.3755 31.9706V31.7794C39.3755 30.8006 38.5749 30 37.5961 30Z" fill="white"/>
</mask>
<g mask="url(#mask0)">
<g id="&#240;&#159;&#142;&#168; Color">
<rect id="Base" width="45" height="45" fill="#333333"/>
</g>
</g>
</g>
</svg>
