<svg width="30" height="30" viewBox="0 0 30 30" fill="none" xmlns="http://www.w3.org/2000/svg">
<g id="Icon/Fill/color-palette">
<path id="Mask" fill-rule="evenodd" clip-rule="evenodd" d="M20.9373 9.74879C20.0398 10.2663 18.8936 9.95879 18.3761 9.06254C17.8586 8.16504 18.1661 7.01879 19.0623 6.50129C19.9598 5.98379 21.1061 6.29129 21.6236 7.18754C22.1411 8.08504 21.8336 9.23129 20.9373 9.74879ZM13.7498 8.75003C12.7148 8.75003 11.8748 7.91003 11.8748 6.87503C11.8748 5.84003 12.7148 5.00003 13.7498 5.00003C14.7848 5.00003 15.6248 5.84003 15.6248 6.87503C15.6248 7.91003 14.7848 8.75003 13.7498 8.75003ZM10.3736 11.5625C9.85608 12.4588 8.70983 12.7663 7.81233 12.2488C6.91608 11.7313 6.60858 10.585 7.12608 9.68754C7.64358 8.79129 8.78983 8.48379 9.68733 9.00129C10.5836 9.51879 10.8911 10.665 10.3736 11.5625ZM8.54857 18.4288C7.68982 19.0088 6.52482 18.7825 5.94607 17.9238C5.36607 17.0663 5.59357 15.9 6.45107 15.3213C7.30982 14.7413 8.47482 14.9688 9.05357 15.8263C9.63357 16.685 9.40607 17.85 8.54857 18.4288ZM24.4248 6.35629C22.0211 3.87629 18.5173 2.49129 14.8823 2.50004H14.8811C8.70107 2.55254 3.42607 7.19004 2.61482 13.2888C2.13732 16.8638 3.20232 20.465 5.53732 23.1675C7.87232 25.8725 11.2586 27.4513 14.8261 27.5H14.8723C16.3736 27.5 17.6961 26.5163 18.0323 25.1425C18.2811 24.115 18.0223 23.0725 17.3223 22.2825C17.2211 22.17 17.1623 22.02 17.1623 21.8763C17.1623 21.5325 17.4436 21.2513 17.7873 21.2513H19.8511C23.8411 21.2513 27.3398 18.0038 27.4911 14.1613C27.6061 11.2863 26.5173 8.51504 24.4248 6.35629Z" fill="#231F20"/>
<mask id="mask0" mask-type="alpha" maskUnits="userSpaceOnUse" x="2" y="2" width="26" height="26">
<path id="Mask_2" fill-rule="evenodd" clip-rule="evenodd" d="M20.9373 9.74879C20.0398 10.2663 18.8936 9.95879 18.3761 9.06254C17.8586 8.16504 18.1661 7.01879 19.0623 6.50129C19.9598 5.98379 21.1061 6.29129 21.6236 7.18754C22.1411 8.08504 21.8336 9.23129 20.9373 9.74879ZM13.7498 8.75003C12.7148 8.75003 11.8748 7.91003 11.8748 6.87503C11.8748 5.84003 12.7148 5.00003 13.7498 5.00003C14.7848 5.00003 15.6248 5.84003 15.6248 6.87503C15.6248 7.91003 14.7848 8.75003 13.7498 8.75003ZM10.3736 11.5625C9.85608 12.4588 8.70983 12.7663 7.81233 12.2488C6.91608 11.7313 6.60858 10.585 7.12608 9.68754C7.64358 8.79129 8.78983 8.48379 9.68733 9.00129C10.5836 9.51879 10.8911 10.665 10.3736 11.5625ZM8.54857 18.4288C7.68982 19.0088 6.52482 18.7825 5.94607 17.9238C5.36607 17.0663 5.59357 15.9 6.45107 15.3213C7.30982 14.7413 8.47482 14.9688 9.05357 15.8263C9.63357 16.685 9.40607 17.85 8.54857 18.4288ZM24.4248 6.35629C22.0211 3.87629 18.5173 2.49129 14.8823 2.50004H14.8811C8.70107 2.55254 3.42607 7.19004 2.61482 13.2888C2.13732 16.8638 3.20232 20.465 5.53732 23.1675C7.87232 25.8725 11.2586 27.4513 14.8261 27.5H14.8723C16.3736 27.5 17.6961 26.5163 18.0323 25.1425C18.2811 24.115 18.0223 23.0725 17.3223 22.2825C17.2211 22.17 17.1623 22.02 17.1623 21.8763C17.1623 21.5325 17.4436 21.2513 17.7873 21.2513H19.8511C23.8411 21.2513 27.3398 18.0038 27.4911 14.1613C27.6061 11.2863 26.5173 8.51504 24.4248 6.35629Z" fill="white"/>
</mask>
<g mask="url(#mask0)">
<g id="&#240;&#159;&#142;&#168; Color">
<rect id="Base" width="30" height="30" fill="#F6F6F6"/>
</g>
</g>
</g>
</svg>
