<svg width="30" height="30" viewBox="0 0 30 30" fill="none" xmlns="http://www.w3.org/2000/svg">
<g id="Icon/Fill/person">
<path id="Mask" fill-rule="evenodd" clip-rule="evenodd" d="M20 8.75C20 11.5075 17.7575 13.75 15 13.75C12.2425 13.75 10 11.5075 10 8.75C10 5.9925 12.2425 3.75 15 3.75C17.7575 3.75 20 5.9925 20 8.75ZM23.75 25C23.75 25.69 23.1912 26.25 22.5 26.25H7.5C6.80875 26.25 6.25 25.69 6.25 25C6.25 20.175 10.1762 16.25 15 16.25C19.8237 16.25 23.75 20.175 23.75 25Z" fill="#231F20"/>
<mask id="mask0" mask-type="alpha" maskUnits="userSpaceOnUse" x="6" y="3" width="18" height="24">
<path id="Mask_2" fill-rule="evenodd" clip-rule="evenodd" d="M20 8.75C20 11.5075 17.7575 13.75 15 13.75C12.2425 13.75 10 11.5075 10 8.75C10 5.9925 12.2425 3.75 15 3.75C17.7575 3.75 20 5.9925 20 8.75ZM23.75 25C23.75 25.69 23.1912 26.25 22.5 26.25H7.5C6.80875 26.25 6.25 25.69 6.25 25C6.25 20.175 10.1762 16.25 15 16.25C19.8237 16.25 23.75 20.175 23.75 25Z" fill="white"/>
</mask>
<g mask="url(#mask0)">
<g id="&#240;&#159;&#142;&#168; Color">
<rect id="Base" width="30" height="30" fill="#F6F6F6"/>
</g>
</g>
</g>
</svg>
