<svg width="30" height="30" viewBox="0 0 30 30" fill="none" xmlns="http://www.w3.org/2000/svg">
<g id="Icon/Fill/person-done">
<path id="Mask" fill-rule="evenodd" clip-rule="evenodd" d="M12.5 13.75C15.2575 13.75 17.5 11.5075 17.5 8.75C17.5 5.9925 15.2575 3.75 12.5 3.75C9.7425 3.75 7.5 5.9925 7.5 8.75C7.5 11.5075 9.7425 13.75 12.5 13.75ZM27.0704 5.30687C26.5491 4.85437 25.7604 4.90812 25.3066 5.42937L22.9741 8.11062L22.1816 7.22437C21.7229 6.70937 20.9329 6.66562 20.4166 7.12687C19.9029 7.58687 19.8579 8.37812 20.3191 8.89187L22.0554 10.8331C22.2929 11.0981 22.6316 11.2494 22.9866 11.2494H22.9954C23.3541 11.2469 23.6954 11.0906 23.9304 10.8206L27.1941 7.07062C27.6466 6.54937 27.5916 5.75937 27.0704 5.30687ZM21.25 24.9999C21.25 25.6899 20.6912 26.2499 20 26.2499H5C4.30875 26.2499 3.75 25.6899 3.75 24.9999C3.75 20.1749 7.67625 16.2499 12.5 16.2499C17.3237 16.2499 21.25 20.1749 21.25 24.9999Z" fill="#231F20"/>
<mask id="mask0" mask-type="alpha" maskUnits="userSpaceOnUse" x="3" y="3" width="25" height="24">
<path id="Mask_2" fill-rule="evenodd" clip-rule="evenodd" d="M12.5 13.75C15.2575 13.75 17.5 11.5075 17.5 8.75C17.5 5.9925 15.2575 3.75 12.5 3.75C9.7425 3.75 7.5 5.9925 7.5 8.75C7.5 11.5075 9.7425 13.75 12.5 13.75ZM27.0704 5.30687C26.5491 4.85437 25.7604 4.90812 25.3066 5.42937L22.9741 8.11062L22.1816 7.22437C21.7229 6.70937 20.9329 6.66562 20.4166 7.12687C19.9029 7.58687 19.8579 8.37812 20.3191 8.89187L22.0554 10.8331C22.2929 11.0981 22.6316 11.2494 22.9866 11.2494H22.9954C23.3541 11.2469 23.6954 11.0906 23.9304 10.8206L27.1941 7.07062C27.6466 6.54937 27.5916 5.75937 27.0704 5.30687ZM21.25 24.9999C21.25 25.6899 20.6912 26.2499 20 26.2499H5C4.30875 26.2499 3.75 25.6899 3.75 24.9999C3.75 20.1749 7.67625 16.2499 12.5 16.2499C17.3237 16.2499 21.25 20.1749 21.25 24.9999Z" fill="white"/>
</mask>
<g mask="url(#mask0)">
<g id="&#240;&#159;&#142;&#168; Color">
<rect id="Base" width="30" height="30" fill="#333333"/>
</g>
</g>
</g>
</svg>
