<svg width="30" height="30" viewBox="0 0 30 30" fill="none" xmlns="http://www.w3.org/2000/svg">
<g id="Icon/Fill/shuffle-2">
<path id="Mask" fill-rule="evenodd" clip-rule="evenodd" d="M23.3862 17.8679C22.8988 17.3779 22.1063 17.3754 21.6187 17.8642C21.1287 18.3517 21.1263 19.1429 21.6138 19.6317L21.98 20.0004H20C17.2425 20.0004 15 17.7567 15 15.0004C15 12.2429 17.2425 10.0004 20 10.0004H21.985L21.6187 10.3642C21.1287 10.8517 21.1263 11.6429 21.6138 12.1317C21.8575 12.3767 22.1787 12.5004 22.5 12.5004C22.8188 12.5004 23.1388 12.3779 23.3813 12.1354L25.8813 9.64668C26.1175 9.41293 26.2488 9.09543 26.25 8.76418C26.2512 8.43168 26.12 8.11418 25.8862 7.87918L23.3862 5.36793C22.8988 4.87793 22.1063 4.87543 21.6187 5.36418C21.1287 5.85168 21.1263 6.64293 21.6138 7.13168L21.98 7.50043H20C17.3925 7.50043 15.0938 8.83793 13.75 10.8629C12.4062 8.83793 10.1075 7.50043 7.5 7.50043H5C4.30875 7.50043 3.75 8.05918 3.75 8.75043C3.75 9.44043 4.30875 10.0004 5 10.0004H7.5C10.2575 10.0004 12.5 12.2429 12.5 15.0004C12.5 17.7567 10.2575 20.0004 7.5 20.0004H5C4.30875 20.0004 3.75 20.5592 3.75 21.2504C3.75 21.9404 4.30875 22.5004 5 22.5004H7.5C10.1075 22.5004 12.4062 21.1617 13.75 19.1367C15.0938 21.1617 17.3925 22.5004 20 22.5004H21.985L21.6187 22.8642C21.1287 23.3517 21.1263 24.1429 21.6138 24.6317C21.8575 24.8767 22.1787 25.0004 22.5 25.0004C22.8188 25.0004 23.1388 24.8779 23.3813 24.6354L25.8813 22.1467C26.1175 21.9129 26.2488 21.5954 26.25 21.2642C26.2512 20.9317 26.12 20.6142 25.8862 20.3792L23.3862 17.8679Z" fill="#F6F6F6"/>
<mask id="mask0" mask-type="alpha" maskUnits="userSpaceOnUse" x="3" y="4" width="24" height="22">
<path id="Mask_2" fill-rule="evenodd" clip-rule="evenodd" d="M23.3862 17.8679C22.8988 17.3779 22.1063 17.3754 21.6187 17.8642C21.1287 18.3517 21.1263 19.1429 21.6138 19.6317L21.98 20.0004H20C17.2425 20.0004 15 17.7567 15 15.0004C15 12.2429 17.2425 10.0004 20 10.0004H21.985L21.6187 10.3642C21.1287 10.8517 21.1263 11.6429 21.6138 12.1317C21.8575 12.3767 22.1787 12.5004 22.5 12.5004C22.8188 12.5004 23.1388 12.3779 23.3813 12.1354L25.8813 9.64668C26.1175 9.41293 26.2488 9.09543 26.25 8.76418C26.2512 8.43168 26.12 8.11418 25.8862 7.87918L23.3862 5.36793C22.8988 4.87793 22.1063 4.87543 21.6187 5.36418C21.1287 5.85168 21.1263 6.64293 21.6138 7.13168L21.98 7.50043H20C17.3925 7.50043 15.0938 8.83793 13.75 10.8629C12.4062 8.83793 10.1075 7.50043 7.5 7.50043H5C4.30875 7.50043 3.75 8.05918 3.75 8.75043C3.75 9.44043 4.30875 10.0004 5 10.0004H7.5C10.2575 10.0004 12.5 12.2429 12.5 15.0004C12.5 17.7567 10.2575 20.0004 7.5 20.0004H5C4.30875 20.0004 3.75 20.5592 3.75 21.2504C3.75 21.9404 4.30875 22.5004 5 22.5004H7.5C10.1075 22.5004 12.4062 21.1617 13.75 19.1367C15.0938 21.1617 17.3925 22.5004 20 22.5004H21.985L21.6187 22.8642C21.1287 23.3517 21.1263 24.1429 21.6138 24.6317C21.8575 24.8767 22.1787 25.0004 22.5 25.0004C22.8188 25.0004 23.1388 24.8779 23.3813 24.6354L25.8813 22.1467C26.1175 21.9129 26.2488 21.5954 26.25 21.2642C26.2512 20.9317 26.12 20.6142 25.8862 20.3792L23.3862 17.8679Z" fill="white"/>
</mask>
<g mask="url(#mask0)">
<g id="&#240;&#159;&#142;&#168; Color">
<rect id="Base" width="30" height="30" fill="#333333"/>
</g>
</g>
</g>
</svg>
