<svg width="30" height="30" viewBox="0 0 30 30" fill="none" xmlns="http://www.w3.org/2000/svg">
<g id="Icon/Fill/checkmark">
<path id="Mask" fill-rule="evenodd" clip-rule="evenodd" d="M12.3292 22.5001C11.9842 22.5001 11.6542 22.3576 11.418 22.1063L5.33923 15.6326C4.86548 15.1301 4.89173 14.3388 5.39423 13.8663C5.89798 13.3938 6.68923 13.4188 7.16048 13.9213L12.3167 19.4101L22.8267 7.90758C23.2942 7.39633 24.0842 7.36258 24.5942 7.82758C25.103 8.29258 25.138 9.08383 24.673 9.59258L13.2517 22.0926C13.018 22.3501 12.6855 22.4976 12.338 22.5001H12.3292Z" fill="#231F20"/>
<mask id="mask0" mask-type="alpha" maskUnits="userSpaceOnUse" x="5" y="7" width="20" height="16">
<path id="Mask_2" fill-rule="evenodd" clip-rule="evenodd" d="M12.3292 22.5001C11.9842 22.5001 11.6542 22.3576 11.418 22.1063L5.33923 15.6326C4.86548 15.1301 4.89173 14.3388 5.39423 13.8663C5.89798 13.3938 6.68923 13.4188 7.16048 13.9213L12.3167 19.4101L22.8267 7.90758C23.2942 7.39633 24.0842 7.36258 24.5942 7.82758C25.103 8.29258 25.138 9.08383 24.673 9.59258L13.2517 22.0926C13.018 22.3501 12.6855 22.4976 12.338 22.5001H12.3292Z" fill="white"/>
</mask>
<g mask="url(#mask0)">
<g id="&#240;&#159;&#142;&#168; Color">
<rect id="Base" width="30" height="30" fill="#333333"/>
</g>
</g>
</g>
</svg>
