<svg width="30" height="34" viewBox="0 0 30 34" fill="none" xmlns="http://www.w3.org/2000/svg">
<path fill-rule="evenodd" clip-rule="evenodd" d="M10.7998 0C10.1371 0 9.59982 0.537257 9.59982 1.19999V23.7998H1.95972C1.82342 23.7998 1.69179 23.8199 1.56764 23.8572C1.45178 23.82 1.32824 23.7998 1.19999 23.7998C0.537255 23.7998 0 24.3371 0 24.9998V32.6402V32.7999C0 33.4626 0.537255 33.9998 1.19999 33.9998C1.22494 33.9998 1.2497 33.9991 1.27427 33.9976C1.30262 33.9993 1.33121 34.0002 1.36 34.0002H10.6399C10.6682 34.0002 10.6963 33.9994 10.7242 33.9977C10.7492 33.9992 10.7744 34 10.7998 34C11.4625 34 11.9998 33.4628 11.9998 32.8V32.6592L11.9999 32.6402L11.9998 32.6213V26.5198H18.0002V32.6189L18 32.6402L18.0002 32.6616V32.8C18.0002 33.4628 18.5374 34 19.2002 34C19.2256 34 19.2508 33.9992 19.2758 33.9977C19.3036 33.9994 19.3317 34.0002 19.36 34.0002H28.6399C29.391 34.0002 29.9999 33.3913 29.9999 32.6402C29.9999 31.8891 29.391 31.2802 28.6399 31.2802H20.4002V1.19999C20.4002 0.537255 19.8629 0 19.2002 0C18.5374 0 18.0002 0.537257 18.0002 1.19999V23.7998H11.9998V1.19999C11.9998 0.537255 11.4625 0 10.7998 0ZM9.59982 26.5198H2.39999V31.2802H9.59982V26.5198Z" fill="#333333"/>
</svg>
