<svg width="43" height="45" viewBox="0 0 43 45" fill="none" xmlns="http://www.w3.org/2000/svg">
<path fill-rule="evenodd" clip-rule="evenodd" d="M15.4798 0C14.5299 0 13.7598 0.770072 13.7598 1.72V31.5H2.65979C2.49524 31.5 2.33586 31.5221 2.18443 31.5634C2.03669 31.5221 1.88093 31.5 1.72 31.5C0.77007 31.5 0 32.2701 0 33.22V43.2V43.28C0 44.2299 0.77007 45 1.72 45C1.73322 45 1.7464 44.9999 1.75954 44.9996C1.77299 44.9999 1.78648 45 1.8 45H15.4C15.4135 45 15.4269 44.9999 15.4403 44.9996C15.4535 44.9999 15.4666 45 15.4798 45C16.4297 45 17.1998 44.2299 17.1998 43.28V43.2278L17.2 43.2L17.1998 43.1722V35.1H25.8V43.2V43.28C25.8 44.2299 26.5701 45 27.52 45C27.5332 45 27.5464 44.9999 27.5595 44.9996C27.573 44.9999 27.5865 45 27.6 45H41.2C42.1941 45 43 44.1941 43 43.2C43 42.2059 42.1941 41.4 41.2 41.4H29.24V1.72C29.24 0.77007 28.4699 0 27.52 0C26.5701 0 25.8 0.770072 25.8 1.72V31.5H17.1998V1.72C17.1998 0.77007 16.4297 0 15.4798 0ZM13.7598 35.1H3.44V41.4H13.7598V35.1Z" fill="#333333"/>
</svg>
