<svg width="225" height="225" viewBox="0 0 225 225" fill="none" xmlns="http://www.w3.org/2000/svg">
<path fill-rule="evenodd" clip-rule="evenodd" d="M75 0C73.3432 0 72 1.34314 72 3V157.5H15H7.50002H3C1.34315 157.5 0 158.843 0 160.5V210V222C0 223.45 1.02835 224.659 2.3954 224.939C2.59069 224.979 2.7929 225 3 225H15H75H87C88.6569 225 90 223.657 90 222V175.5H135V210V222C135 223.657 136.343 225 138 225H150H222C223.657 225 225 223.657 225 222V210C225 208.343 223.657 207 222 207H153V3C153 1.34315 151.657 0 150 0H138C136.343 0 135 1.34314 135 3V157.5H90V3C90 1.34315 88.6569 0 87 0H75ZM72 175.5H18V207H72V175.5Z" fill="#333333"/>
</svg>
